<svg width="93" height="30" viewBox="0 0 93 30" fill="none" xmlns="http://www.w3.org/2000/svg">
<path d="M18.5245 28.2692C18.5245 28.4969 18.4782 28.7224 18.3882 28.9327C18.2981 29.143 18.1662 29.334 17.9999 29.4947C17.8336 29.6555 17.6362 29.7829 17.4191 29.8696C17.2019 29.9563 16.9692 30.0006 16.7344 29.9999C16.2609 29.9999 15.8069 29.8176 15.4721 29.493C15.1373 29.1685 14.9492 28.7282 14.9492 28.2692V20.4909C14.9499 20.0324 15.1383 19.5928 15.473 19.2687C15.8077 18.9447 16.2614 18.7627 16.7344 18.7627C17.2078 18.7627 17.6619 18.945 17.9967 19.2696C18.3314 19.5942 18.5195 20.0344 18.5195 20.4934L18.5245 28.2692Z" fill="url(#paint0_linear)"/>
<path d="M11.6345 28.2692C11.6345 28.7282 11.4464 29.1684 11.1116 29.493C10.7769 29.8176 10.3228 29.9999 9.84936 29.9999C9.37591 29.9999 8.92185 29.8176 8.58707 29.493C8.25229 29.1684 8.06421 28.7282 8.06421 28.2692V20.4909C8.06421 20.0319 8.25229 19.5917 8.58707 19.2672C8.92185 18.9426 9.37591 18.7603 9.84936 18.7603C10.3228 18.7603 10.7769 18.9426 11.1116 19.2672C11.4464 19.5917 11.6345 20.0319 11.6345 20.4909V28.2692Z" fill="url(#paint1_linear)"/>
<path d="M21.6862 9.25146H4.90283V15.9481H4.91788V22.9729C4.91788 23.2307 5.02354 23.4781 5.21162 23.6604C5.39969 23.8427 5.65478 23.9452 5.92077 23.9452H20.6683C20.9343 23.9452 21.1894 23.8427 21.3775 23.6604C21.5655 23.4781 21.6712 23.2307 21.6712 22.9729V15.9481H21.6862V9.25146Z" fill="url(#paint2_linear)"/>
<path d="M26.1518 18.2033C26.1512 18.6619 25.9628 19.1015 25.6281 19.4255C25.2934 19.7495 24.8397 19.9315 24.3667 19.9315C23.8932 19.9315 23.4392 19.7492 23.1044 19.4246C22.7696 19.1001 22.5815 18.6599 22.5815 18.2009V10.4226C22.5815 9.96357 22.7696 9.52336 23.1044 9.1988C23.4392 8.87423 23.8932 8.69189 24.3667 8.69189C24.6011 8.69189 24.8333 8.73666 25.0498 8.82363C25.2664 8.91061 25.4632 9.03809 25.629 9.1988C25.7948 9.3595 25.9262 9.55029 26.016 9.76027C26.1057 9.97024 26.1518 10.1953 26.1518 10.4226V18.2033Z" fill="url(#paint3_linear)"/>
<path d="M4.0078 18.2038C4.00713 18.6624 3.81876 19.102 3.48406 19.426C3.14935 19.75 2.69567 19.932 2.22265 19.932C1.74963 19.932 1.29595 19.75 0.961244 19.426C0.626535 19.102 0.438164 18.6624 0.4375 18.2038L0.4375 10.4255C0.4375 9.96649 0.625578 9.52629 0.960358 9.20173C1.29514 8.87716 1.7492 8.69482 2.22265 8.69482C2.6961 8.69482 3.15016 8.87716 3.48494 9.20173C3.81972 9.52629 4.0078 9.96649 4.0078 10.4255V18.2038Z" fill="url(#paint4_linear)"/>
<path d="M13.2947 1.42926C5.15624 1.40496 4.9707 8.29362 4.9707 8.29362H21.6162C21.6162 8.29362 21.3555 1.45843 13.2947 1.42926ZM9.64168 5.74865C9.44333 5.74865 9.24943 5.69163 9.0845 5.58479C8.91958 5.47796 8.79103 5.32611 8.71513 5.14845C8.63922 4.97078 8.61936 4.77529 8.65806 4.58668C8.69675 4.39808 8.79227 4.22483 8.93253 4.08885C9.07278 3.95288 9.25148 3.86028 9.44602 3.82276C9.64057 3.78524 9.84221 3.8045 10.0255 3.87809C10.2087 3.95168 10.3654 4.0763 10.4756 4.23619C10.5858 4.39608 10.6446 4.58407 10.6446 4.77637C10.6446 5.03423 10.5389 5.28154 10.3508 5.46388C10.1628 5.64622 9.90766 5.74865 9.64168 5.74865ZM16.9478 5.74865C16.7494 5.74865 16.5555 5.69163 16.3906 5.58479C16.2257 5.47796 16.0971 5.32611 16.0212 5.14845C15.9453 4.97078 15.9254 4.77529 15.9641 4.58668C16.0028 4.39808 16.0983 4.22483 16.2386 4.08885C16.3789 3.95288 16.5576 3.86028 16.7521 3.82276C16.9466 3.78524 17.1483 3.8045 17.3315 3.87809C17.5148 3.95168 17.6714 4.0763 17.7816 4.23619C17.8918 4.39608 17.9506 4.58407 17.9506 4.77637C17.9506 5.03423 17.845 5.28154 17.6569 5.46388C17.4688 5.64622 17.2137 5.74865 16.9478 5.74865Z" fill="url(#paint5_linear)"/>
<path d="M9.36565 2.35545C9.39573 2.39677 9.48599 2.38462 9.56873 2.32628C9.65147 2.27037 9.69409 2.19259 9.66401 2.15127L8.10952 0.0243863C8.07944 -0.016936 7.98918 -0.0047824 7.90644 0.0535549C7.8237 0.109462 7.78107 0.187245 7.81116 0.228567L9.36565 2.35545Z" fill="url(#paint6_linear)"/>
<path d="M17.236 2.35545C17.2059 2.39677 17.1156 2.38462 17.0329 2.32628C16.9502 2.27037 16.9075 2.19259 16.9351 2.15127L18.4896 0.0243863C18.5197 -0.016936 18.61 -0.0047824 18.6927 0.0535549C18.7754 0.109462 18.8181 0.187245 18.788 0.228567L17.236 2.35545Z" fill="url(#paint7_linear)"/>
<path d="M35.6887 6.08487H38.0953V29.2342H35.6887V6.08487Z" fill="url(#paint8_linear)"/>
<path d="M70.4127 6.08487H72.8193V23.8479H70.4127V6.08487Z" fill="url(#paint9_linear)"/>
<path fill-rule="evenodd" clip-rule="evenodd" d="M53.4518 14.9664C53.4518 20.1247 49.2702 24.3063 44.1119 24.3063C41.8198 24.3063 39.7205 23.4807 38.0953 22.1106V18.4144C39.2915 20.4971 41.5379 21.8997 44.1119 21.8997C47.941 21.8997 51.0452 18.7956 51.0452 14.9664C51.0452 11.1372 47.941 8.03308 44.1119 8.03308C41.5379 8.03308 39.2915 9.43573 38.0953 11.5184V7.82219C39.7205 6.4521 41.8198 5.62646 44.1119 5.62646C49.2702 5.62646 53.4518 9.8081 53.4518 14.9664Z" fill="url(#paint10_linear)"/>
<path fill-rule="evenodd" clip-rule="evenodd" d="M55.0562 14.9664C55.0562 20.1247 59.2378 24.3063 64.3961 24.3063C66.6882 24.3063 68.7875 23.4807 70.4127 22.1106V18.4144C69.2165 20.4971 66.9701 21.8997 64.3961 21.8997C60.567 21.8997 57.4628 18.7956 57.4628 14.9664C57.4628 11.1372 60.567 8.03308 64.3961 8.03308C66.9701 8.03308 69.2165 9.43573 70.4127 11.5184V7.82219C68.7875 6.4521 66.6882 5.62646 64.3961 5.62646C59.2378 5.62646 55.0562 9.8081 55.0562 14.9664Z" fill="url(#paint11_linear)"/>
<path fill-rule="evenodd" clip-rule="evenodd" d="M89.4937 5.91297H92.2441L83.8572 25.4506C82.827 27.8505 80.4663 29.4061 77.8547 29.4061H77.346V26.8276H77.9319C79.4887 26.8276 80.8961 25.9009 81.5113 24.4707L82.063 23.188L74.6529 5.97027H77.4606L83.3419 20.2148L89.4937 5.91297Z" fill="url(#paint12_linear)"/>
<defs>
<linearGradient id="paint0_linear" x1="16.7369" y1="18.7627" x2="16.7369" y2="29.9999" gradientUnits="userSpaceOnUse">
<stop stop-color="#E6E6E6"/>
<stop offset="1" stop-color="#BFBFBF"/>
</linearGradient>
<linearGradient id="paint1_linear" x1="9.84936" y1="18.7603" x2="9.84936" y2="29.9999" gradientUnits="userSpaceOnUse">
<stop stop-color="#E6E6E6"/>
<stop offset="1" stop-color="#BFBFBF"/>
</linearGradient>
<linearGradient id="paint2_linear" x1="13.2945" y1="9.25146" x2="13.2945" y2="23.9452" gradientUnits="userSpaceOnUse">
<stop stop-color="#E6E6E6"/>
<stop offset="1" stop-color="#BFBFBF"/>
</linearGradient>
<linearGradient id="paint3_linear" x1="24.3667" y1="8.69189" x2="24.3667" y2="19.9315" gradientUnits="userSpaceOnUse">
<stop stop-color="#E6E6E6"/>
<stop offset="1" stop-color="#BFBFBF"/>
</linearGradient>
<linearGradient id="paint4_linear" x1="2.22265" y1="8.69482" x2="2.22265" y2="19.932" gradientUnits="userSpaceOnUse">
<stop stop-color="#E6E6E6"/>
<stop offset="1" stop-color="#BFBFBF"/>
</linearGradient>
<linearGradient id="paint5_linear" x1="13.2935" y1="1.4292" x2="13.2935" y2="8.29362" gradientUnits="userSpaceOnUse">
<stop stop-color="#E6E6E6"/>
<stop offset="1" stop-color="#BFBFBF"/>
</linearGradient>
<linearGradient id="paint6_linear" x1="8.73758" y1="0" x2="8.73758" y2="2.37983" gradientUnits="userSpaceOnUse">
<stop stop-color="#E6E6E6"/>
<stop offset="1" stop-color="#BFBFBF"/>
</linearGradient>
<linearGradient id="paint7_linear" x1="17.8622" y1="0" x2="17.8622" y2="2.37983" gradientUnits="userSpaceOnUse">
<stop stop-color="#E6E6E6"/>
<stop offset="1" stop-color="#BFBFBF"/>
</linearGradient>
<linearGradient id="paint8_linear" x1="63.9664" y1="5.62646" x2="63.9664" y2="29.4061" gradientUnits="userSpaceOnUse">
<stop stop-color="#E6E6E6"/>
<stop offset="1" stop-color="#BFBFBF"/>
</linearGradient>
<linearGradient id="paint9_linear" x1="63.9664" y1="5.62646" x2="63.9664" y2="29.4061" gradientUnits="userSpaceOnUse">
<stop stop-color="#E6E6E6"/>
<stop offset="1" stop-color="#BFBFBF"/>
</linearGradient>
<linearGradient id="paint10_linear" x1="63.9664" y1="5.62646" x2="63.9664" y2="29.4061" gradientUnits="userSpaceOnUse">
<stop stop-color="#E6E6E6"/>
<stop offset="1" stop-color="#BFBFBF"/>
</linearGradient>
<linearGradient id="paint11_linear" x1="63.9664" y1="5.62646" x2="63.9664" y2="29.4061" gradientUnits="userSpaceOnUse">
<stop stop-color="#E6E6E6"/>
<stop offset="1" stop-color="#BFBFBF"/>
</linearGradient>
<linearGradient id="paint12_linear" x1="63.9664" y1="5.62646" x2="63.9664" y2="29.4061" gradientUnits="userSpaceOnUse">
<stop stop-color="#E6E6E6"/>
<stop offset="1" stop-color="#BFBFBF"/>
</linearGradient>
</defs>
</svg>
