<svg width="73" height="30" viewBox="0 0 73 30" fill="none" xmlns="http://www.w3.org/2000/svg">
<path d="M13.7416 3.86719C14.5844 2.8125 15.1864 1.40625 15.0058 0C13.7416 0.0585938 12.2366 0.820312 11.3336 1.81641C10.551 2.69531 9.82856 4.16016 10.0092 5.50781C11.454 5.68359 12.8386 4.92188 13.7416 3.86719ZM15.0058 5.85938C12.959 5.74219 11.2132 6.97266 10.25 6.97266C9.28675 6.97266 7.78173 5.91797 6.1563 5.91797C4.04927 5.97656 2.12284 7.08984 1.03922 8.96484C-1.12801 12.6562 0.437214 18.1055 2.60445 21.0938C3.62786 22.5586 4.89208 24.1992 6.51751 24.1406C8.08273 24.082 8.68474 23.1445 10.551 23.1445C12.4172 23.1445 12.959 24.1406 14.6446 24.082C16.3303 24.0234 17.4139 22.6172 18.4373 21.0938C19.6413 19.3945 20.1229 17.7539 20.1229 17.6953C20.0627 17.6367 16.8119 16.4648 16.8119 12.832C16.7517 9.78516 19.3403 8.32031 19.4607 8.26172C18.0761 6.15234 15.7884 5.91797 15.0058 5.85938Z" fill="url(#paint0_linear)"/>
<path d="M32.705 1.69922C37.1599 1.69922 40.2301 4.6875 40.2301 8.96484C40.2301 13.3008 37.0997 16.2891 32.5846 16.2891H27.7083V23.8477H24.1565V1.69922H32.705ZM27.7083 13.418H31.7418C34.8121 13.418 36.5579 11.7773 36.5579 9.02344C36.5579 6.21094 34.8121 4.62891 31.7418 4.62891H27.6481V13.418H27.7083ZM41.1332 19.3359C41.1332 16.5234 43.3606 14.7656 47.3338 14.5312L51.9091 14.2969V13.0664C51.9091 11.25 50.6449 10.1953 48.5981 10.1953C46.6114 10.1953 45.4074 11.1328 45.1064 12.5391H41.8556C42.0362 9.60938 44.6248 7.44141 48.7185 7.44141C52.7519 7.44141 55.3406 9.49219 55.3406 12.7734V23.9062H52.0897V21.2695H52.0295C51.0663 23.0859 48.9593 24.1992 46.792 24.1992C43.4208 24.1992 41.1332 22.207 41.1332 19.3359ZM51.9091 17.8711V16.582L47.8154 16.8164C45.7686 16.9336 44.6248 17.8125 44.6248 19.2188C44.6248 20.625 45.8288 21.5625 47.6348 21.5625C50.0429 21.5625 51.9091 19.9805 51.9091 17.8711ZM58.3506 29.8828V27.1875C58.5914 27.2461 59.1934 27.2461 59.4342 27.2461C60.9994 27.2461 61.8423 26.6016 62.3841 24.9609C62.3841 24.9023 62.6851 23.9648 62.6851 23.9648L56.665 7.79297H60.3372L64.5513 20.9766H64.6115L68.8256 7.79297H72.4376L66.2369 24.8438C64.7921 28.7695 63.1667 30 59.7352 30C59.4944 29.9414 58.6516 29.9414 58.3506 29.8828Z" fill="url(#paint1_linear)"/>
<defs>
<linearGradient id="paint0_linear" x1="10.0615" y1="0" x2="10.0615" y2="24.1422" gradientUnits="userSpaceOnUse">
<stop stop-color="#E6E6E6"/>
<stop offset="1" stop-color="#BFBFBF"/>
</linearGradient>
<linearGradient id="paint1_linear" x1="48.2971" y1="1.69922" x2="48.2971" y2="30" gradientUnits="userSpaceOnUse">
<stop stop-color="#E6E6E6"/>
<stop offset="1" stop-color="#BFBFBF"/>
</linearGradient>
</defs>
</svg>
