<svg width="30" height="31" viewBox="0 0 30 31" fill="none" xmlns="http://www.w3.org/2000/svg">
<path fill-rule="evenodd" clip-rule="evenodd" d="M15 0.999986C15.2762 0.999986 15.5 1.22384 15.5 1.49999L15.5 30.5C15.5 30.7761 15.2762 31 15 31C14.7239 31 14.5 30.7761 14.5 30.5L14.5 1.49999C14.5 1.22384 14.7239 0.999986 15 0.999986Z" fill="white"/>
<path fill-rule="evenodd" clip-rule="evenodd" d="M29.6264 14.6778C29.4377 14.8581 29.1405 14.8581 28.9518 14.6778L14.9981 1.3507L15.7052 0.675341L29.6264 13.9715C29.8278 14.1638 29.8278 14.4854 29.6264 14.6778Z" fill="white"/>
<path fill-rule="evenodd" clip-rule="evenodd" d="M0.369816 14.6777C0.168395 14.4854 0.168395 14.1638 0.369816 13.9714L14.3074 0.659656C14.6939 0.290531 15.3023 0.290531 15.6888 0.659656L15.7052 0.675341L1.04446 14.6777C0.855707 14.858 0.558567 14.858 0.369816 14.6777Z" fill="white"/>
</svg>
