<svg width="25" height="25" viewBox="0 0 25 25" fill="none" xmlns="http://www.w3.org/2000/svg">
<path fill-rule="evenodd" clip-rule="evenodd" d="M1.06068 24.0606C0.474894 23.4748 0.474894 22.5251 1.06068 21.9393L21.6283 1.37172C22.214 0.785929 23.1638 0.785929 23.7496 1.37172C24.3354 1.9575 24.3354 2.90725 23.7496 3.49304L3.182 24.0606C2.59621 24.6464 1.64647 24.6464 1.06068 24.0606Z" fill="#2D3039"/>
<path fill-rule="evenodd" clip-rule="evenodd" d="M1.06068 1.06068C1.64647 0.474894 2.55753 0.436207 3.09559 0.97427L24.5291 22.4078C25.0672 22.9458 25.0285 23.8569 24.4427 24.4427C23.8569 25.0285 22.9458 25.0672 22.4078 24.5291L0.97427 3.09559C0.436207 2.55753 0.474894 1.64647 1.06068 1.06068Z" fill="#2D3039"/>
</svg>
