<svg width="223" height="80" viewBox="0 0 223 80" fill="none" xmlns="http://www.w3.org/2000/svg">
<path d="M84.3888 32.6857V28.5714H110.217V33.8286C110.217 37.9944 106.84 41.3714 102.675 41.3714H88.5031V50.0571H84.3888V37.3714H101.417C104.005 37.3714 106.103 35.2736 106.103 32.6857H84.3888Z" fill="#AB9477"/>
<path d="M121.189 50.0571H117.075V37.2571H142.903V50.0571H138.789V41.3714H121.189V50.0571Z" fill="#AB9477"/>
<path d="M142.903 28.5714H117.075V28.6857C117.075 30.958 118.917 32.8 121.189 32.8H138.789C141.061 32.8 142.903 30.958 142.903 28.6857V28.5714Z" fill="#AB9477"/>
<path d="M153.875 28.5714H149.76V50.0571H171.475C173.747 50.0571 175.589 48.2151 175.589 45.9429H153.875V28.5714Z" fill="#AB9477"/>
<path d="M186.56 28.5714H182.446V50.0571H186.56V28.5714Z" fill="#AB9477"/>
<path d="M204.96 50.0571L192.732 28.5714H197.76L206.789 44.4571L215.817 28.5714H220.732L208.503 50.0571H204.96Z" fill="#AB9477"/>
<path d="M103.132 64.2286H84.3888V64.4571C84.3888 66.0982 85.7192 67.4286 87.3603 67.4286H100.16C101.801 67.4286 103.132 66.0982 103.132 64.4571V64.2286Z" fill="#AB9477"/>
<path d="M103.132 70.6286H84.3888V70.8571C84.3888 72.4982 85.7192 73.8286 87.3603 73.8286H100.16C101.801 73.8286 103.132 72.4982 103.132 70.8571V70.6286Z" fill="#AB9477"/>
<path d="M103.132 76.8H84.3888V77.0286C84.3888 78.6696 85.7192 80 87.3603 80H100.16C101.801 80 103.132 78.6696 103.132 77.0286V76.8Z" fill="#AB9477"/>
<path d="M150.903 64.2286H132.16V64.4571C132.16 66.0982 133.491 67.4286 135.132 67.4286H147.932C149.573 67.4286 150.903 66.0982 150.903 64.4571V64.2286Z" fill="#AB9477"/>
<path d="M150.903 70.6286H132.16V70.8571C132.16 72.4982 133.491 73.8286 135.132 73.8286H147.932C149.573 73.8286 150.903 72.4982 150.903 70.8571V70.6286Z" fill="#AB9477"/>
<path d="M150.903 76.8H132.16V77.0286C132.16 78.6696 133.491 80 135.132 80H147.932C149.573 80 150.903 78.6696 150.903 77.0286V76.8Z" fill="#AB9477"/>
<path d="M111.36 80H114.446L114.332 70.2857L124.046 80H127.132V64.2286H124.16V75.5429L112.846 64.2286H108.275L111.36 67.2757V80Z" fill="#AB9477"/>
<path d="M155.932 80H158.903V73.6H163.817L170.217 80H174.675L168.275 73.7143H169.303C172.333 73.7143 174.789 71.2582 174.789 68.2286V64.2286H156.046V64.4571C156.046 66.0982 157.376 67.4286 159.017 67.4286H171.817V67.6571C171.817 69.2982 170.487 70.6286 168.846 70.6286H155.932V80Z" fill="#AB9477"/>
<path d="M179.932 64.2286V67.4286H195.703C197.344 67.4286 198.675 66.0982 198.675 64.4571V64.2286H179.932Z" fill="#AB9477"/>
<path d="M179.932 75.6571V70.6286H182.903V75.6571C182.903 76.4146 183.517 77.0286 184.275 77.0286H195.703V73.6H188.96C187.445 73.6 186.217 72.372 186.217 70.8571V70.6286H198.675V80H184.275C181.876 80 179.932 78.0556 179.932 75.6571Z" fill="#AB9477"/>
<path d="M203.703 67.3143V64.2286H206.675V66.0571L213.189 72.3429L219.589 65.9429V64.2286H222.675V67.2L214.675 75.2V80H211.703V75.2L203.703 67.3143Z" fill="#AB9477"/>
<path d="M39.5335 22.1714C55.3302 22.1714 68.2479 34.498 69.1924 50.0571H64.84C63.9029 36.8984 52.9309 26.5143 39.5335 26.5143C26.1361 26.5143 15.1641 36.8984 14.2269 50.0571H9.87455C10.8191 34.498 23.7368 22.1714 39.5335 22.1714Z" fill="#AB9477"/>
<path d="M21.9888 48.4571V50.0571H57.4174V48.3429L50.8888 45.7143H28.5175L21.9888 48.4571Z" fill="#AB9477"/>
<path d="M21.9888 63.3143V64.9143H57.4174V63.2L50.8888 60.5714H28.5175L21.9888 63.3143Z" fill="#AB9477"/>
<path d="M21.9888 78.1714V79.7714H57.4174V78.0571L50.8888 75.4286H28.5175L21.9888 78.1714Z" fill="#AB9477"/>
<path d="M36.1603 3.2C36.1603 1.43269 37.593 0 39.3603 0C41.1276 0 42.5603 1.43269 42.5603 3.2V14.8571C42.5603 16.6245 41.1276 18.0571 39.3603 18.0571C37.593 18.0571 36.1603 16.6245 36.1603 14.8571V3.2Z" fill="#AB9477"/>
<path d="M0.937258 20.9596C-0.312419 19.7099 -0.31242 17.6838 0.937258 16.4341C2.18694 15.1845 4.21306 15.1845 5.46274 16.4341L13.7056 24.677C14.9553 25.9267 14.9553 27.9528 13.7056 29.2025C12.4559 30.4521 10.4298 30.4521 9.1801 29.2025L0.937258 20.9596Z" fill="#AB9477"/>
<path d="M73.6372 16.4342C74.8869 15.1845 76.9131 15.1845 78.1627 16.4342C79.4124 17.6839 79.4124 19.71 78.1627 20.9597L69.9199 29.2025C68.6702 30.4522 66.6441 30.4522 65.3944 29.2025C64.1447 27.9528 64.1447 25.9267 65.3944 24.677L73.6372 16.4342Z" fill="#AB9477"/>
</svg>
