<svg width="80" height="80" viewBox="0 0 80 80" fill="none" xmlns="http://www.w3.org/2000/svg">
<path d="M39.5335 22.1714C55.3302 22.1714 68.2479 34.498 69.1924 50.0571H64.84C63.9029 36.8984 52.9309 26.5143 39.5335 26.5143C26.1361 26.5143 15.1641 36.8984 14.2269 50.0571H9.87455C10.8191 34.498 23.7368 22.1714 39.5335 22.1714Z" fill="white"/>
<path d="M21.9888 48.4571V50.0571H57.4174V48.3429L50.8888 45.7143H28.5175L21.9888 48.4571Z" fill="white"/>
<path d="M21.9888 63.3143V64.9143H57.4174V63.2L50.8888 60.5714H28.5175L21.9888 63.3143Z" fill="white"/>
<path d="M21.9888 78.1714V79.7714H57.4174V78.0571L50.8888 75.4286H28.5175L21.9888 78.1714Z" fill="white"/>
<path d="M36.1603 3.2C36.1603 1.43269 37.593 0 39.3603 0C41.1276 0 42.5603 1.43269 42.5603 3.2V14.8571C42.5603 16.6245 41.1276 18.0571 39.3603 18.0571C37.593 18.0571 36.1603 16.6245 36.1603 14.8571V3.2Z" fill="white"/>
<path d="M0.937258 20.9596C-0.312419 19.7099 -0.31242 17.6838 0.937258 16.4341C2.18694 15.1845 4.21306 15.1845 5.46274 16.4341L13.7056 24.677C14.9553 25.9267 14.9553 27.9528 13.7056 29.2025C12.4559 30.4521 10.4298 30.4521 9.1801 29.2025L0.937258 20.9596Z" fill="white"/>
<path d="M73.6372 16.4342C74.8869 15.1845 76.9131 15.1845 78.1627 16.4342C79.4124 17.6839 79.4124 19.71 78.1627 20.9597L69.9199 29.2025C68.6702 30.4522 66.6441 30.4522 65.3944 29.2025C64.1447 27.9528 64.1447 25.9267 65.3944 24.677L73.6372 16.4342Z" fill="white"/>
</svg>
