<svg width="36" height="31" viewBox="0 0 36 31" fill="none" xmlns="http://www.w3.org/2000/svg">
<path fill-rule="evenodd" clip-rule="evenodd" d="M0 1.5C0 0.671573 0.671573 0 1.5 0H28.5C29.3284 0 30 0.671573 30 1.5C30 2.32843 29.3284 3 28.5 3H1.5C0.671573 3 0 2.32843 0 1.5Z" fill="#F2F2F2"/>
<path fill-rule="evenodd" clip-rule="evenodd" d="M0 15.5C0 14.6716 0.671573 14 1.5 14H19.5C20.3284 14 21 14.6716 21 15.5C21 16.3284 20.3284 17 19.5 17H1.5C0.671573 17 0 16.3284 0 15.5Z" fill="#F2F2F2"/>
<path fill-rule="evenodd" clip-rule="evenodd" d="M0 29.5C0 28.6716 0.671573 28 1.5 28H34.5C35.3284 28 36 28.6716 36 29.5C36 30.3284 35.3284 31 34.5 31H1.5C0.671573 31 0 30.3284 0 29.5Z" fill="#F2F2F2"/>
</svg>
